Coordinates
version=1
nRows=30
nColumns=21
inDegrees=yes

Units are S.I. units (second, meters, Newtons, ...)
Angles are in degrees.

endheader
time	sternoclavicular_r2	sternoclavicular_r3	unrotscap_r3	unrotscap_r2	acromioclavicular_r2	acromioclavicular_r3	acromioclavicular_r1	unrothum_r1	unrothum_r3	unrothum_r2	elv_angle	shoulder_elev	shoulder1_r2	shoulder_rot	elbow_flexion	pro_sup	deviation	flexion	wrist_hand_r1	wrist_hand_r3
      1.67338710	    -10.72407872	      4.54221360	     -4.54221360	     10.72407872	     -2.17140780	     17.54855401	      7.88795425	     -7.88795425	    -17.54855401	      2.17140780	     85.72726153	     44.31427557	    -85.72726153	     19.88876039	      5.82272709	     90.00000000	      0.00000000	      0.00000000	      0.00000000	      0.00000000
      1.69354839	    -10.63420340	      4.50414665	     -4.50414665	     10.63420340	     -2.15320987	     17.40148478	      7.82184765	     -7.82184765	    -17.40148478	      2.15320987	     85.71822319	     43.94289077	    -85.71822319	     19.88950768	      5.82197490	     90.00000000	      0.00000000	      0.00000000	      0.00000000	      0.00000000
      1.71370968	    -10.52428769	      4.45759155	     -4.45759155	     10.52428769	     -2.13095418	     17.22162208	      7.74100060	     -7.74100060	    -17.22162208	      2.13095418	     85.70694050	     43.48869465	    -85.70694050	     19.89058025	      5.82261942	     90.00000000	      0.00000000	      0.00000000	      0.00000000	      0.00000000
      1.73387097	    -10.39424764	      4.40251272	     -4.40251272	     10.39424764	     -2.10462371	     17.00882852	      7.64535136	     -7.64535136	    -17.00882852	      2.10462371	     85.69465679	     42.95134024	    -85.69465679	     19.89231214	      5.82193781	     90.00000000	      0.00000000	      0.00000000	      0.00000000	      0.00000000
      1.75403226	    -10.24363393	      4.33871986	     -4.33871986	     10.24363393	     -2.07412750	     16.76236886	      7.53456944	     -7.53456944	    -16.76236886	      2.07412750	     85.68183743	     42.32897095	    -85.68183743	     19.89394979	      5.81539371	     90.00000000	      0.00000000	      0.00000000	      0.00000000	      0.00000000
      1.77419355	    -10.07218579	      4.26610252	     -4.26610252	     10.07218579	     -2.03941274	     16.48181638	      7.40846303	     -7.40846303	    -16.48181638	      2.03941274	     85.66020879	     41.62050916	    -85.66020879	     19.89493315	      5.80847704	     90.00000000	      0.00000000	      0.00000000	      0.00000000	      0.00000000
      1.79435484	     -9.87975982	      4.18459996	     -4.18459996	      9.87975982	     -2.00045039	     16.16693641	      7.26692665	     -7.26692665	    -16.16693641	      2.00045039	     85.64244214	     40.82536230	    -85.64244214	     19.89714591	      5.80455340	     90.00000000	      0.00000000	      0.00000000	      0.00000000	      0.00000000
      1.81451613	     -9.66769158	      4.09477786	     -4.09477786	      9.66769158	     -1.95751089	     15.81991443	      7.11094266	     -7.11094266	    -15.81991443	      1.95751089	     85.61684876	     39.94904920	    -85.61684876	     19.89848709	      5.79700443	     90.00000000	      0.00000000	      0.00000000	      0.00000000	      0.00000000
      1.83467742	     -9.43671891	      3.99694874	     -3.99694874	      9.43671891	     -1.91074362	     15.44195784	      6.94105377	     -6.94105377	    -15.44195784	      1.91074362	     85.58518247	     38.99461885	    -85.58518247	     19.89984628	      5.78860535	     90.00000000	      0.00000000	      0.00000000	      0.00000000	      0.00000000
      1.85483871	     -9.18861594	      3.89186403	     -3.89186403	      9.18861594	     -1.86050782	     15.03596972	      6.75856491	     -6.75856491	    -15.03596972	      1.86050782	     85.55332115	     37.96940223	    -85.55332115	     19.90170998	      5.77299574	     90.00000000	      0.00000000	      0.00000000	      0.00000000	      0.00000000
      1.87500000	     -8.92405790	      3.77980973	     -3.77980973	      8.92405790	     -1.80694019	     14.60305505	      6.56397274	     -6.56397274	    -14.60305505	      1.80694019	     85.51699340	     36.87618964	    -85.51699340	     19.90343490	      5.75476101	     90.00000000	      0.00000000	      0.00000000	      0.00000000	      0.00000000
      1.89516129	     -8.64461230	      3.66144977	     -3.66144977	      8.64461230	     -1.75035815	     14.14577883	      6.35843023	     -6.35843023	    -14.14577883	      1.75035815	     85.47538630	     35.72145837	    -85.47538630	     19.90497858	      5.73406003	     90.00000000	      0.00000000	      0.00000000	      0.00000000	      0.00000000
      1.91532258	     -8.35209849	      3.53755472	     -3.53755472	      8.35209849	     -1.69113005	     13.66711819	      6.14327557	     -6.14327557	    -13.66711819	      1.69113005	     85.42767653	     34.51272631	    -85.42767653	     19.90622937	      5.70968499	     90.00000000	      0.00000000	      0.00000000	      0.00000000	      0.00000000
      1.93548387	     -8.04837885	      3.40891342	     -3.40891342	      8.04837885	     -1.62963300	     13.17012068	      5.91987860	     -5.91987860	    -13.17012068	      1.62963300	     85.37450247	     33.25768930	    -85.37450247	     19.90731988	      5.68110368	     90.00000000	      0.00000000	      0.00000000	      0.00000000	      0.00000000
      1.95564516	     -7.73539780	      3.27634942	     -3.27634942	      7.73539780	     -1.56626070	     12.65796807	      5.68966953	     -5.68966953	    -12.65796807	      1.56626070	     85.31475009	     31.96438208	    -85.31475009	     19.90818269	      5.64850853	     90.00000000	      0.00000000	      0.00000000	      0.00000000	      0.00000000
      1.97580645	     -7.41509293	      3.14068339	     -3.14068339	      7.41509293	     -1.50140548	     12.13383099	      5.45407352	     -5.45407352	    -12.13383099	      1.50140548	     85.24769660	     30.64081119	    -85.24769660	     19.90886590	      5.61338794	     90.00000000	      0.00000000	      0.00000000	      0.00000000	      0.00000000
      1.99596774	     -7.08991167	      3.00295196	     -3.00295196	      7.08991167	     -1.43556289	     11.60171433	      5.21489075	     -5.21489075	    -11.60171433	      1.43556289	     85.17648107	     29.29708999	    -85.17648107	     19.90946265	      5.57238481	     90.00000000	      0.00000000	      0.00000000	      0.00000000	      0.00000000
      2.01612903	     -6.76147954	      2.86384361	     -2.86384361	      6.76147954	     -1.36906207	     11.06427805	      4.97331684	     -4.97331684	    -11.06427805	      1.36906207	     85.09590592	     27.93993547	    -85.09590592	     19.90968120	      5.52886694	     90.00000000	      0.00000000	      0.00000000	      0.00000000	      0.00000000
      2.03629032	     -6.43327089	      2.72482991	     -2.72482991	      6.43327089	     -1.30260649	     10.52720747	      4.73190731	     -4.73190731	    -10.52720747	      1.30260649	     85.01226242	     26.58370442	    -85.01226242	     19.90997201	      5.47875121	     90.00000000	      0.00000000	      0.00000000	      0.00000000	      0.00000000
      2.05645161	     -6.10604684	      2.58623325	     -2.58623325	      6.10604684	     -1.23635028	      9.99174806	      4.49122199	     -4.49122199	     -9.99174806	      1.23635028	     84.91870872	     25.23154196	    -84.91870872	     19.90980214	      5.42523381	     90.00000000	      0.00000000	      0.00000000	      0.00000000	      0.00000000
      2.07661290	     -5.78321366	      2.44949635	     -2.44949635	      5.78321366	     -1.17098313	      9.46347373	      4.25376631	     -4.25376631	     -9.46347373	      1.17098313	     84.82120477	     23.89752354	    -84.82120477	     19.90964463	      5.36717666	     90.00000000	      0.00000000	      0.00000000	      0.00000000	      0.00000000
      2.09677419	     -5.46552725	      2.31493938	     -2.31493938	      5.46552725	     -1.10665809	      8.94362142	      4.02009627	     -4.02009627	     -8.94362142	      1.10665809	     84.70945736	     22.58477273	    -84.70945736	     19.90913736	      5.31023463	     90.00000000	      0.00000000	      0.00000000	      0.00000000	      0.00000000
      2.11693548	     -5.15586731	      2.18378205	     -2.18378205	      5.15586731	     -1.04395825	      8.43690337	      3.79233000	     -3.79233000	     -8.43690337	      1.04395825	     84.59241698	     21.30518905	    -84.59241698	     19.90824427	      5.24811039	     90.00000000	      0.00000000	      0.00000000	      0.00000000	      0.00000000
      2.13709677	     -4.85618022	      2.05684874	     -2.05684874	      4.85618022	     -0.98327771	      7.94650460	      3.57189913	     -3.57189913	     -7.94650460	      0.98327771	     84.46614850	     20.06681543	    -84.46614850	     19.90735902	      5.18619602	     90.00000000	      0.00000000	      0.00000000	      0.00000000	      0.00000000
      2.15725806	     -4.56822511	      1.93488455	     -1.93488455	      4.56822511	     -0.92497266	      7.47530368	      3.36009756	     -3.36009756	     -7.47530368	      0.92497266	     84.33100515	     18.87692097	    -84.33100515	     19.90631342	      5.12384186	     90.00000000	      0.00000000	      0.00000000	      0.00000000	      0.00000000
      2.17741935	     -4.29375083	      1.81863020	     -1.81863020	      4.29375083	     -0.86939720	      7.02616236	      3.15821163	     -3.15821163	     -7.02616236	      0.86939720	     84.18728790	     17.74273225	    -84.18728790	     19.90513036	      5.06172388	     90.00000000	      0.00000000	      0.00000000	      0.00000000	      0.00000000
      2.19758065	     -4.03435884	      1.70876399	     -1.70876399	      4.03435884	     -0.81687560	      6.60170126	      2.96741928	     -2.96741928	     -6.60170126	      0.81687560	     84.03566933	     16.67086694	    -84.03566933	     19.90383244	      5.00050963	     90.00000000	      0.00000000	      0.00000000	      0.00000000	      0.00000000
      2.21774194	     -3.79147994	      1.60589195	     -1.60589195	      3.79147994	     -0.76769756	      6.20426166	      2.78877292	     -2.78877292	     -6.20426166	      0.76769756	     83.87729773	     15.66723736	    -83.87729773	     19.90243819	      4.94082089	     90.00000000	      0.00000000	      0.00000000	      0.00000000	      0.00000000
      2.23790323	     -3.56636299	      1.51054304	     -1.51054304	      3.56636299	     -0.72211596	      5.83588719	      2.62319113	     -2.62319113	     -5.83588719	      0.72211596	     83.71401033	     14.73700413	    -83.71401033	     19.90095990	      4.88316969	     90.00000000	      0.00000000	      0.00000000	      0.00000000	      0.00000000
      2.25806452	     -3.36006562	      1.42316521	     -1.42316521	      3.36006562	     -0.68034494	      5.49830849	      2.47145182	     -2.47145182	     -5.49830849	      0.68034494	     83.54860629	     13.88453757	    -83.54860629	     19.89940330	      4.82791373	     90.00000000	      0.00000000	      0.00000000	      0.00000000	      0.00000000
